<svg width="60" height="60" viewBox="19 19 22 22" fill="none" xmlns="http://www.w3.org/2000/svg">
    <g id="flechaAlanteApp">
        <path id="Arrow 1"
            d="M20 29C19.4477 29 19 29.4477 19 30C19 30.5523 19.4477 31 20 31V29ZM40.7071 30.7071C41.0976 30.3166 41.0976 29.6834 40.7071 29.2929L34.3431 22.9289C33.9526 22.5384 33.3195 22.5384 32.9289 22.9289C32.5384 23.3195 32.5384 23.9526 32.9289 24.3431L38.5858 30L32.9289 35.6569C32.5384 36.0474 32.5384 36.6805 32.9289 37.0711C33.3195 37.4616 33.9526 37.4616 34.3431 37.0711L40.7071 30.7071ZM20 31H40V29H20V31Z"
            fill="black" />
    </g>
</svg>