<svg width="32" height="16" viewBox="0 0 32 16" fill="none" xmlns="http://www.w3.org/2000/svg">
    <path id="Arrow 2"
        d="M31 9C31.5523 9 32 8.55228 32 8C32 7.44772 31.5523 7 31 7L31 9ZM0.292891 7.29289C-0.0976333 7.68341 -0.0976334 8.31658 0.29289 8.7071L6.65685 15.0711C7.04738 15.4616 7.68054 15.4616 8.07107 15.0711C8.46159 14.6805 8.46159 14.0474 8.07107 13.6569L2.41421 8L8.07107 2.34314C8.46159 1.95262 8.46159 1.31945 8.07107 0.92893C7.68054 0.538406 7.04738 0.538406 6.65685 0.92893L0.292891 7.29289ZM31 7L0.999998 7L0.999998 9L31 9L31 7Z"
        fill="black" />
</svg>