<svg width="216" height="195" viewBox="0 0 216 195" fill="none" xmlns="http://www.w3.org/2000/svg">
<path d="M17.1035 173H12.2256H7.34766V105.588H16.3125H25.2773L40.5703 159.729L54.6768 105.588H63.6416H72.6064V173H67.7285H62.8506V112.399H62.4111L45.3604 173H39.999H34.6377L17.543 112.399H17.1035V173ZM94.0781 174.362C89.127 174.362 85.2598 172.971 82.4766 170.188C79.6934 167.404 78.3018 163.537 78.3018 158.586C78.3018 155.041 79.4736 152.155 81.8174 149.929C84.1611 147.673 88.1895 145.563 93.9023 143.601L105.064 139.777C106.559 139.25 107.906 138.415 109.107 137.272C110.191 136.247 110.895 135.222 111.217 134.196C111.568 133.142 111.598 131.94 111.305 130.593C110.895 128.747 109.884 127.209 108.272 125.979C106.163 124.367 103.38 123.562 99.9229 123.562C96.3779 123.562 93.0381 124.294 89.9033 125.759C86.7686 127.224 83.8828 129.392 81.2461 132.263V123.034C84.0293 120.163 87.1641 118.024 90.6504 116.618C94.1367 115.183 98.0039 114.465 102.252 114.465C108.023 114.465 112.535 115.871 115.787 118.684C119.068 121.467 120.709 125.334 120.709 130.285V173H116.095H111.48V165.573C111.07 166.188 110.602 166.774 110.074 167.331C105.914 172.019 100.582 174.362 94.0781 174.362ZM111.48 149.313V143.601C110.279 144.626 108.829 145.417 107.13 145.974L98.2969 149.006C94.2832 150.383 91.5146 151.833 89.9912 153.356C88.4971 154.851 87.75 156.901 87.75 159.509C87.75 161.94 88.4824 163.845 89.9473 165.222C91.4121 166.599 93.4336 167.287 96.0117 167.287C100.641 167.287 104.376 165.632 107.218 162.321C110.06 159.011 111.48 154.675 111.48 149.313ZM162.791 168.605C158.953 172.443 154.002 174.362 147.938 174.362C140.174 174.362 135.486 170.935 133.875 164.079C132.557 158.249 132.234 144.948 132.908 124.177H124.954V118.771C128.938 116.486 131.912 114.143 133.875 111.74C135.838 109.338 137.522 105.939 138.929 101.545H142.884V115.827H162.132V124.177H142.4C141.727 141.696 141.727 152.858 142.4 157.663C143.221 163.435 145.945 166.32 150.574 166.32C155.203 166.32 159.144 164.533 162.396 160.959L162.791 160.52V168.605ZM189.404 174.362C181.611 174.362 175.503 171.726 171.079 166.452C166.685 161.149 164.487 153.811 164.487 144.436C164.487 135.441 166.743 128.205 171.255 122.727C175.796 117.219 181.758 114.465 189.141 114.465C196.904 114.465 202.588 116.867 206.191 121.672C209.736 126.389 211.509 133.889 211.509 144.172V144.436L211.421 147.336H173.76C174.053 152.932 175.518 157.414 178.154 160.783C181.084 164.445 185.156 166.276 190.371 166.276C193.535 166.276 196.597 165.368 199.556 163.552C202.515 161.706 205.474 158.879 208.433 155.07L209.18 165.002C206.104 168.078 202.896 170.407 199.556 171.989C196.216 173.571 192.832 174.362 189.404 174.362ZM204.346 139.25C203.818 135.002 202.676 131.677 200.918 129.274C198.398 125.759 194.502 124.001 189.229 124.001C183.955 124.001 180.059 125.773 177.539 129.318C175.811 131.691 174.668 135.002 174.111 139.25H204.346Z" fill="black"/>
<path d="M61.2975 85.2656C58.983 88.1367 56.0533 90.3779 52.5084 91.9893C48.9928 93.5713 45.1988 94.3623 41.1266 94.3623C32.3961 94.3623 25.6578 91.2129 20.9117 84.9141C16.1949 78.5859 13.8365 69.5918 13.8365 57.9316C13.8365 47.1504 16.1949 38.8447 20.9117 33.0146C25.6578 27.1553 32.3961 24.2256 41.1266 24.2256C45.6676 24.2256 49.5934 24.8994 52.9039 26.2471C56.2438 27.5654 59.0416 29.5869 61.2975 32.3115V45.6709C59.3346 41.9795 56.6393 39.123 53.2115 37.1016C49.7838 35.0801 45.9166 34.0693 41.61 34.0693C35.8678 34.0693 31.4293 36.2227 28.2945 40.5293C25.1598 44.8066 23.5924 50.915 23.5924 58.8545C23.5924 67.4092 25.1598 74.0156 28.2945 78.6738C31.4293 83.3027 35.8678 85.6172 41.61 85.6172C45.0963 85.6172 48.2604 84.7969 51.1021 83.1562C53.9439 81.4863 57.3424 78.4834 61.2975 74.1475V85.2656ZM78.9881 35.8271V73.2686C78.9881 77.8096 79.823 81.1494 81.493 83.2881C83.1922 85.3975 85.8436 86.4521 89.4471 86.4521C94.4568 86.4521 98.324 84.8701 101.049 81.7061C103.773 78.542 105.136 74.0303 105.136 68.1709V35.8271H109.838H114.584V93H110.365H106.102V81.1787C105.136 83.2295 103.89 85.1484 102.367 86.9355C98.1189 91.916 92.8016 94.4062 86.4148 94.4062C81.1414 94.4062 77.0105 92.6924 74.0223 89.2646C71.034 85.8369 69.5398 81.0762 69.5398 74.9824V35.8271H74.242H78.9881ZM127.748 93V22.2041H132.45H137.196V93H132.494H127.748ZM181.869 88.6055C178.031 92.4434 173.08 94.3623 167.016 94.3623C159.252 94.3623 154.565 90.9346 152.953 84.0791C151.635 78.249 151.313 64.9482 151.987 44.1768H144.032V38.7715C148.017 36.4863 150.99 34.1426 152.953 31.7402C154.916 29.3379 156.601 25.9395 158.007 21.5449H161.962V35.8271H181.21V44.1768H161.479C160.805 61.6963 160.805 72.8584 161.479 77.6631C162.299 83.4346 165.024 86.3203 169.653 86.3203C174.281 86.3203 178.222 84.5332 181.474 80.959L181.869 80.5195V88.6055ZM188.793 93V35.8271C190.639 36.501 192.221 36.8379 193.539 36.8379C194.858 36.8379 196.425 36.501 198.242 35.8271V93H193.539H188.793ZM193.583 21.0615C195.693 21.0615 197.289 21.457 198.373 22.248C199.457 23.0391 199.999 24.1963 199.999 25.7197C199.999 27.2432 199.457 28.4004 198.373 29.1914C197.289 29.9531 195.693 30.334 193.583 30.334C191.474 30.334 189.877 29.9531 188.793 29.1914C187.709 28.4004 187.167 27.2432 187.167 25.7197C187.167 24.1963 187.709 23.0391 188.793 22.248C189.877 21.457 191.474 21.0615 193.583 21.0615Z" fill="black"/>
</svg>
