<svg width="26" height="26" viewBox="0 0 26 26" fill="none" xmlns="http://www.w3.org/2000/svg">
<path d="M24.9969 12.1554C24.9969 13.5684 24.1675 14.066 21.3538 14.066V25H4.64316V14.066C1.82939 14.066 1 13.5684 1 12.1554C1 10.7424 2.10278 10.2908 4.64316 10.2908H21.3538C23.8942 10.2908 24.9969 10.7454 24.9969 12.1554Z" stroke="white" stroke-width="2" stroke-miterlimit="10" stroke-linejoin="round"/>
<path d="M21.3537 10.2908H4.64307C4.64307 8.45693 5.79192 5.62614 11.1 5.62614C10.6024 5.13772 10.2952 4.45578 10.2952 3.70319C10.2952 2.21029 11.5055 1 12.9984 1C14.4913 1 15.7016 2.21029 15.7016 3.70319C15.7016 4.45578 15.3944 5.13772 14.8967 5.62614C20.2048 5.62614 21.3537 8.45693 21.3537 10.2908Z" stroke="white" stroke-width="2" stroke-miterlimit="10" stroke-linejoin="round"/>
</svg>
