<svg width="23" height="24" viewBox="0 0 23 24" fill="none" xmlns="http://www.w3.org/2000/svg">
<path d="M4 12C3.44772 12 3 12.4477 3 13C3 15.2539 3.53216 17.216 4.74016 18.6279C5.78009 19.8434 7.2314 20.5473 9 20.7357V23H1L1 9.34511L11.5 1.26199L22 9.34511V23H14V20.7357C15.7686 20.5473 17.2199 19.8434 18.2598 18.6279C19.4678 17.216 20 15.2539 20 13C20 12.4477 19.5523 12 19 12C16.9306 12 14.8711 12.2975 13.2916 13.1111C12.5803 13.4774 11.9608 13.9542 11.4873 14.5488C11.0172 13.9695 10.4077 13.5013 9.71176 13.1385C8.13467 12.3163 6.07665 12 4 12Z" fill="white" stroke="white" stroke-width="2" stroke-miterlimit="1.00234" stroke-linejoin="round"/>
</svg>
