<svg width="24" height="26" viewBox="0 0 24 26" fill="none" xmlns="http://www.w3.org/2000/svg">
<path d="M6.78443 15.4463C10.2343 14.8512 13.7657 14.8512 17.2156 15.4463C17.5648 15.5072 17.8858 15.5681 18.1562 15.6318C21.3131 16.368 23 16.6412 23 20.2338V25H1V20.2338C1 16.6412 2.68689 16.368 5.84383 15.6318C6.117 15.5681 6.43523 15.5072 6.78443 15.4463Z" fill="white"/>
<path d="M12 11C14.7614 11 17 8.76142 17 6C17 3.23858 14.7614 1 12 1C9.23858 1 7 3.23858 7 6C7 8.76142 9.23858 11 12 11Z" fill="white"/>
<path d="M6.78443 15.4463C10.2343 14.8512 13.7657 14.8512 17.2156 15.4463C17.5648 15.5072 17.8858 15.5681 18.1562 15.6318C21.3131 16.368 23 16.6412 23 20.2338V25H1V20.2338C1 16.6412 2.68689 16.368 5.84383 15.6318C6.117 15.5681 6.43523 15.5072 6.78443 15.4463Z" stroke="white" stroke-width="2" stroke-miterlimit="10" stroke-linejoin="round"/>
<path d="M12 11C14.7614 11 17 8.76142 17 6C17 3.23858 14.7614 1 12 1C9.23858 1 7 3.23858 7 6C7 8.76142 9.23858 11 12 11Z" stroke="white" stroke-width="2" stroke-miterlimit="10" stroke-linejoin="round"/>
</svg>
