<svg width="24" height="25" viewBox="0 0 24 25" fill="none" xmlns="http://www.w3.org/2000/svg">
<path d="M22.9969 12C22.9969 13.413 22.3137 13.0661 19.5 13.0661V24H4.5V13.0661C1.68623 13.0661 1 13.413 1 12C1 10.587 1.95962 11 4.5 11H19.5C22.0403 11 22.9969 10.59 22.9969 12Z" fill="white"/>
<path d="M19.5 7.7908H4.5C4.5 6.95693 8 6 11.1 6C10 4.9 10.2952 3.95578 10.2952 3.20319C10.2952 2.4506 11 1.5 11.9984 1.5C13 1.5 13.7016 2.4506 13.7016 3.20319C13.7016 3.95578 14 4.89675 12.8967 6C16 6 19.5 6.95693 19.5 7.7908Z" fill="white"/>
<path d="M22.9969 12C22.9969 13.413 22.3137 13.0661 19.5 13.0661V24H4.5V13.0661C1.68623 13.0661 1 13.413 1 12C1 10.587 1.95962 11 4.5 11H19.5C22.0403 11 22.9969 10.59 22.9969 12Z" stroke="white" stroke-width="2" stroke-miterlimit="10" stroke-linejoin="round"/>
<path d="M19.5 7.7908H4.5C4.5 6.95693 8 6 11.1 6C10 4.9 10.2952 3.95578 10.2952 3.20319C10.2952 2.4506 11 1.5 11.9984 1.5C13 1.5 13.7016 2.4506 13.7016 3.20319C13.7016 3.95578 14 4.89675 12.8967 6C16 6 19.5 6.95693 19.5 7.7908Z" stroke="white" stroke-width="2" stroke-miterlimit="10" stroke-linejoin="round"/>
</svg>
