<svg width="20" height="24" viewBox="0 0 20 24" fill="none" xmlns="http://www.w3.org/2000/svg">
<path d="M18.5322 11.2857L17.8748 15.8571H2.31462L1.65723 11.2857H18.5322Z" fill="white"/>
<path d="M18 1C18 7.42819 12.7773 8.28572 9.99834 8.28572C7.21938 8.28572 2 7.42819 2 1C8.90402 1 9.99834 6.16121 9.99834 8.28572C9.99834 6.16121 11.096 1 18 1Z" fill="white"/>
<path d="M16.1873 15.8571L14.7926 23H5.20403L3.81234 15.8571H16.1873Z" fill="white"/>
<path d="M9.99834 8.28572C12.7773 8.28572 18 7.42819 18 1C11.096 1 9.99834 6.16121 9.99834 8.28572ZM9.99834 8.28572C7.21938 8.28572 2 7.42819 2 1C8.90402 1 9.99834 6.16121 9.99834 8.28572ZM18.5322 11.2857L17.8748 15.8571H2.31462L1.65723 11.2857H18.5322ZM16.1873 15.8571L14.7926 23H5.20403L3.81234 15.8571H16.1873Z" stroke="white" stroke-width="2" stroke-miterlimit="10" stroke-linejoin="round"/>
</svg>
